<?xml version="1.0" encoding="UTF-8"?><svg xmlns="http://www.w3.org/2000/svg" viewBox="0 0 1024 1024"><g id="b"><polygon points="504 512 512 50.1 520 512 504 512 504 512" style="fill:#fff;"/><line x1="512" y1="973.9" x2="512" y2="512" style="fill:none; stroke:#fff; stroke-miterlimit:10; stroke-width:16px;"/><line x1="912" y1="742.9" x2="912" y2="281.1" style="fill:none; stroke:#fff; stroke-miterlimit:10; stroke-width:16px;"/><line x1="112" y1="742.9" x2="112" y2="281.1" style="fill:none; stroke:#fff; stroke-miterlimit:10; stroke-width:16px;"/><line x1="512" y1="512" x2="112" y2="281.1" style="fill:none; stroke:#fff; stroke-miterlimit:10; stroke-width:8px;"/><polygon points="908 288 512 50.1 916 274.1 908 288 908 288" style="fill:#fff;"/><polygon points="108 274.1 512 50.1 116 288 108 274.1 108 274.1" style="fill:#fff;"/><line x1="512" y1="973.9" x2="112" y2="742.9" style="fill:none; stroke:#fff; stroke-miterlimit:10; stroke-width:8px;"/><line x1="512" y1="512" x2="912" y2="281.1" style="fill:none; stroke:#fff; stroke-miterlimit:10; stroke-width:8px;"/><line x1="512" y1="973.9" x2="912" y2="742.9" style="fill:none; stroke:#fff; stroke-miterlimit:10; stroke-width:8px;"/></g><g id="d"><polygon points="504 512 512 50.1 520 512 504 512 504 512" style="fill:#fff;"/><line x1="512" y1="973.9" x2="512" y2="512" style="fill:none; stroke:#fff; stroke-miterlimit:10; stroke-width:16px;"/><line x1="912" y1="742.9" x2="912" y2="281.1" style="fill:none; stroke:#fff; stroke-miterlimit:10; stroke-width:16px;"/><line x1="112" y1="742.9" x2="112" y2="281.1" style="fill:none; stroke:#fff; stroke-miterlimit:10; stroke-width:16px;"/><line x1="512" y1="512" x2="112" y2="281.1" style="fill:none; stroke:#fff; stroke-miterlimit:10; stroke-width:8px;"/><polygon points="908 288 512 50.1 916 274.1 908 288 908 288" style="fill:#fff;"/><polygon points="108 274.1 512 50.1 116 288 108 274.1 108 274.1" style="fill:#fff;"/><line x1="512" y1="973.9" x2="112" y2="742.9" style="fill:none; stroke:#fff; stroke-miterlimit:10; stroke-width:8px;"/><line x1="512" y1="512" x2="912" y2="281.1" style="fill:none; stroke:#fff; stroke-miterlimit:10; stroke-width:8px;"/><line x1="512" y1="973.9" x2="912" y2="742.9" style="fill:none; stroke:#fff; stroke-miterlimit:10; stroke-width:8px;"/></g><g id="e"><circle cx="112" cy="281.1" r="20" style="fill:#fff;"/><circle cx="912" cy="281.1" r="20" style="fill:#fff;"/><circle cx="512" cy="512" r="20" style="fill:#fff;"/><circle cx="112" cy="742.9" r="20" style="fill:#fff;"/><circle cx="912" cy="742.9" r="20" style="fill:#fff;"/><circle cx="512" cy="973.9" r="20" style="fill:#fff;"/></g></svg>